<?xml version="1.0" encoding="utf-8" ?>
<svg baseProfile="tiny" height="100%" version="1.2" width="100%" xmlns="http://www.w3.org/2000/svg" xmlns:ev="http://www.w3.org/2001/xml-events" xmlns:xlink="http://www.w3.org/1999/xlink"><defs /><path d="M 25.0,150.01836509645767 L 47.5,150.01836509645767 L 50.0,150.01836509645767 L 50.0,127.51305695508148 C 41.60972099800578,126.33883249620537 41.97060345531719,119.46241332922338 41.99864745636617,108.36309909947377 C 41.99937613011454,108.07470305747958 41.99988009520961,107.78345601962008 42.0,107.48938393578996 L 32.5,105.814277955363 A 8.06958027322057,8.06958027322057 0.0 0,1 25.0,110.90591837258401 A 8.06958027322057,8.06958027322057 0.0 0,1 17.500000000000004,105.814277955363 L 8.0,107.48938393578996 C 8.000119904790388,107.78345601962008 8.000623869885455,108.07470305747958 8.001352543633832,108.36309909947377 C 8.029396544682811,119.46241332922338 8.390279001994223,126.33883249620537 0.0,127.51305695508148 L 0.0,150.01836509645767 L 2.5,150.01836509645767 L 25.0,150.01836509645767Z" fill="none" stroke="black" stroke-width="0.2" /><path d="M 20.036304228985074,58.19999975966175 A 13.862427723567794,13.862427723567794 0.0 0,0 27.536304228985074,55.99591250080593 L 37.036304228985074,57.671019314607236 C 34.531569625126764,68.282855824253 32.42801867223304,74.73995773004046 40.036304228985074,77.69469233389876 L 40.036304228985074,100.19999999999999 L 20.036304228985074,100.19999999999999 L 0.036304228985073905,100.19999999999999 L 0.036304228985073905,77.69469233389876 C 7.644589785737111,74.73995773004046 5.541038832843384,68.282855824253 3.036304228985074,57.671019314607236 L 12.536304228985074,55.99591250080593 A 13.862427723567794,13.862427723567794 0.0 0,0 20.036304228985074,58.19999975966175Z" fill="none" stroke="black" stroke-width="0.2" /><path d="M 50.71815211449253,60.62365671663156 L 64.16969759708451,60.62365671663156 L 67.53258396773248,21.623656716631558 C 62.1671172426906,17.439357491737184 60.43997860297889,8.40600447187137 50.71815211449253,8.038417899757121 C 50.44333445412166,8.028026922109888 50.16212835028255,8.024560637472291 49.8742710288252,8.028324327417153 C 40.31023892503071,8.392831644509783 38.82250626371984,17.379302400730808 33.90372026125254,21.623656716631558 L 37.266606631900565,60.62365671663156 L 50.71815211449253,60.62365671663156Z" fill="none" stroke="black" stroke-width="0.2" /><path d="M 56.76815211449254,68.03841789975712 C 57.042969774863394,68.02802692210986 57.324175878702505,68.02456063747229 57.61203320015984,68.02832432741715 C 67.17606530395433,68.39283164450978 68.66379796526525,77.37930240073075 73.58258396773252,81.62365671663156 L 70.21969759708452,120.62365671663156 L 56.76815211449254,120.62365671663156 L 43.316606631900584,120.62365671663156 L 39.9537202612526,81.62365671663156 C 45.31918698629448,77.43935749173718 47.04632562600618,68.40600447187137 56.76815211449255,68.03841789975712Z" fill="none" stroke="black" stroke-width="0.2" /><path d="M 19.225622648865937,50.0 L 19.225622648865937,43.0 L 9.6,43.0 L -0.02562264886593546,43.0 L -0.02562264886593546,50.0 L 9.6,50.0 L 19.225622648865937,50.0Z" fill="none" stroke="black" stroke-width="0.2" /><path d="M 15.860931205937078,40.0 L 7.93630422898508,40.0 L 0.011677252033081231,40.0 L 0.011677252033081231,33.0 L 7.93630422898508,33.0 L 15.860931205937078,33.0 L 15.860931205937078,40.0Z" fill="none" stroke="black" stroke-width="0.2" /></svg>