<?xml version="1.0" encoding="utf-8" ?>
<svg baseProfile="tiny" height="67.0cm" version="1.2" viewBox="-82.14011482140155 -156.0 334.5604592856062 67.0" width="334.5604592856062cm" xmlns="http://www.w3.org/2000/svg" xmlns:ev="http://www.w3.org/2001/xml-events" xmlns:xlink="http://www.w3.org/1999/xlink"><defs /><path d="M 14.173077489419368,-147.0 L 14.173077489419368,-154.0 L 0.0,-154.0 L -14.173077489419368,-154.0 L -14.173077489419368,-147.0 L 0.0,-147.0 L 14.173077489419368,-147.0Z" fill="none" stroke="black" stroke-width="0.2" /><path d="M 180.05548519582152,-147.0 L 170.2802296428031,-147.0 L 160.5049740897847,-147.0 L 160.5049740897847,-154.0 L 170.2802296428031,-154.0 L 180.05548519582152,-154.0 L 180.05548519582152,-147.0Z" fill="none" stroke="black" stroke-width="0.2" /><path d="M 0.0,-94.80932515357178 L 28.25,-94.80932515357178 L 36.5,-94.80932515357178 L 36.5,-129.2637951102558 C 25.90981735816665,-127.10886349457667 22.853146995707185,-134.79188662850834 18.424934769115996,-147.43389099975707 C 17.96783549144774,-148.73885353783876 17.496122073059695,-150.09665533042968 17.0,-151.50193007954147 L 9.349999999999996,-153.26807128313618 A 9.365456989449502,9.365456989449502 0.0 0,1 0.0,-144.44046615175574 A 9.365456989449502,9.365456989449502 0.0 0,1 -9.349999999999994,-153.26807128313618 L -17.0,-151.50193007954147 C -17.496122073059695,-150.09665533042968 -17.96783549144774,-148.73885353783876 -18.424934769115996,-147.43389099975707 C -22.853146995707185,-134.79188662850834 -25.90981735816665,-127.10886349457667 -36.5,-129.2637951102558 L -36.5,-94.80932515357178 L -28.25,-94.80932515357178 L 0.0,-94.80932515357178Z" fill="none" stroke="black" stroke-width="0.2" /><path d="M 170.2802296428031,-146.9999998827639 A 19.00723460223231,19.00723460223231 0.0 0,0 179.6302296428031,-149.45874611825113 L 187.2802296428031,-147.69260417864683 C 184.33260264894597,-135.973536694004 181.89688240355312,-128.8520962032183 190.2802296428031,-125.45446920936118 L 190.2802296428031,-91.0 L 170.2802296428031,-91.0 L 150.2802296428031,-91.0 L 150.2802296428031,-125.45446920936118 C 158.6635768820531,-128.8520962032183 156.22785663666025,-135.973536694004 153.2802296428031,-147.69260417864683 L 160.9302296428031,-149.45874611825113 A 19.00723460223231,19.00723460223231 0.0 0,0 170.2802296428031,-146.9999998827639Z" fill="none" stroke="black" stroke-width="0.2" /><path d="M 85.14011482140158,-111.00574736234 L 101.70804910986169,-111.00574736234 L 108.8085923763446,-156.00574736234 C 100.44631257858045,-160.04559262943013 97.81839246902246,-168.78641004890486 85.14011482140158,-169.42112456728205 L 85.14011482140158,-111.00574736234Z" fill="none" stroke="black" stroke-width="0.2" /><path d="M 85.14011482140157,-111.00574736234 L 68.57218053294145,-111.00574736234002 L 61.47163726645854,-156.00574736234003 C 67.64429506043567,-160.21036801662706 70.52163361874685,-168.54314331298283 80.98390190074124,-169.3528723905092 C 82.48219047206024,-169.46672161212632 83.86220670356246,-169.48510067335013 85.1401148214016,-169.42112456728205 L 85.14011482140157,-111.00574736234Z" fill="none" stroke="black" stroke-width="0.2" /><path d="M 105.14011482140155,-111.00574736234 L 105.14011482140155,-169.42112456728205 C 106.41802293924067,-169.48510067335013 107.7980391707429,-169.46672161212632 109.29632774206189,-169.3528723905092 C 119.75859602405629,-168.54314331298286 122.63593458236748,-160.21036801662703 128.80859237634462,-156.00574736234 L 121.70804910986168,-111.00574736234 L 105.14011482140155,-111.00574736234Z" fill="none" stroke="black" stroke-width="0.2" /><path d="M 105.14011482140155,-111.00574736234 L 105.14011482140157,-169.42112456728205 C 92.4618371737807,-168.78641004890486 89.8339170642227,-160.04559262943013 81.47163726645854,-156.00574736234 L 88.57218053294145,-111.00574736234002 L 105.14011482140155,-111.00574736234Z" fill="none" stroke="black" stroke-width="0.2" /></svg>