<?xml version='1.0' encoding='utf-8'?>
<svg xmlns="http://www.w3.org/2000/svg" xmlns:xsi="http://www.w3.org/2001/XMLSchema-instance" baseProfile="tiny" height="67.0cm" version="1.2" viewBox="-82.14011482140155 -156.0 334.5604592856062 67.0" width="334.5604592856062cm">
<defs />

<metadata>
  <seamdefinition xsi:noNamespaceSchemaLocation="seamdefinition.xsd">
    <seam>
      <id>1</id>
      <seampart>
          <part>sleeve-front-left</part>
          <start>-35.4,-148.6</start>
          <end>-80.1,-111.0</end>
          <direction>true</direction>
      </seampart>
      <seampart>
          <part>sleeve-back-right</part>
          <start>205.7,-148.6</start>
          <end>250.4,-111.0</end>
          <direction>false</direction>
      </seampart>
    </seam>
    <seam>
      <id>2</id>
      <seampart>
          <part>sleeve-front-left</part>
          <start>-69.5,-98.3</start>
          <end>-30.5,-121.8</end>
          <direction>true</direction>
      </seampart>
      <seampart>
          <part>sleeve-back-right</part>
          <start>239.8,-98.3</start>
          <end>200.7,-121.8</end>
          <direction>false</direction>
      </seampart>
    </seam>
    <seam>
      <id>3</id>
      <seampart>
        <part>sleeve-front-left</part>
        <start>-30.5,-121.8</start>
        <end>-35.4,-148.6</end>
        <direction>true</direction>
      </seampart>
      <seampart>
        <part>bodice-front</part>
        <start>-36.5,-129.3</start>
        <end>-17.0,-151.5</end>
        <direction>false</direction>
      </seampart>
    </seam>
    <seam>
      <id>4</id>
      <seampart>
        <part>bodice-front</part>
        <start>-9.3,-15.3</start>
        <end>-17.0,-151.5</end>
        <direction>true</direction>
      </seampart>
      <seampart>
        <part>bodice-back</part>
        <start>179.6,-149.5</start>
        <end>187.3,-147.7</end>
        <direction>false</direction>
      </seampart>
    </seam>

  </seamdefinition>
</metadata>

<path d="M 14.173077489419368,-147.0 L 14.173077489419368,-154.0 L 0.0,-154.0 L -14.173077489419368,-154.0 L -14.173077489419368,-147.0 L 0.0,-147.0 L 14.173077489419368,-147.0Z" fill="none" stroke="black" stroke-width="0.2" name="collar-front" />
<path d="M 180.05548519582152,-147.0 L 170.2802296428031,-147.0 L 160.5049740897847,-147.0 L 160.5049740897847,-154.0 L 170.2802296428031,-154.0 L 180.05548519582152,-154.0 L 180.05548519582152,-147.0Z" fill="none" stroke="black" stroke-width="0.2" name="collar-back" />
<path d="M 80.14011482140155,-111.00574736234 L 35.391339720856664,-148.55442804484227 C 27.728119466569964,-138.4343172764617 32.734779593406174,-130.80272454380358 30.45431076858621,-121.80008409018392 L 69.49045194267862,-98.31397336670476 L 80.14011482140155,-111.00574736234Z" fill="none" stroke="black" stroke-width="0.2" name="sleeve-front-right" />
<path d="M -80.14011482140155,-111.00574736234 L -69.49045194267863,-98.31397336670476 L -30.45431076858621,-121.80008409018392 C -32.734779593406174,-130.80272454380358 -27.728119466569964,-138.4343172764617 -35.391339720856664,-148.55442804484227 L -80.14011482140155,-111.00574736234Z" fill="none" stroke="black" stroke-width="0.2" name="sleeve-front-left" />
<path d="M 0.0,-94.80932515357178 L 28.25,-94.80932515357178 L 36.5,-94.80932515357178 L 36.5,-129.2637951102558 C 25.90981735816665,-127.10886349457667 22.853146995707185,-134.79188662850834 18.424934769115996,-147.43389099975707 C 17.96783549144774,-148.73885353783876 17.496122073059695,-150.09665533042968 17.0,-151.50193007954147 L 9.349999999999996,-153.26807128313618 A 9.365456989449502,9.365456989449502 0.0 0,1 0.0,-144.44046615175574 A 9.365456989449502,9.365456989449502 0.0 0,1 -9.349999999999994,-153.26807128313618 L -17.0,-151.50193007954147 C -17.496122073059695,-150.09665533042968 -17.96783549144774,-148.73885353783876 -18.424934769115996,-147.43389099975707 C -22.853146995707185,-134.79188662850834 -25.90981735816665,-127.10886349457667 -36.5,-129.2637951102558 L -36.5,-94.80932515357178 L -28.25,-94.80932515357178 L 0.0,-94.80932515357178Z" fill="none" stroke="black" stroke-width="0.2" name="bodice-front" />
<path d="M 170.2802296428031,-146.9999998827639 A 19.00723460223231,19.00723460223231 0.0 0,0 179.6302296428031,-149.45874611825113 L 187.2802296428031,-147.69260417864683 C 184.33260264894597,-135.973536694004 181.89688240355312,-128.8520962032183 190.2802296428031,-125.45446920936118 L 190.2802296428031,-91.0 L 170.2802296428031,-91.0 L 150.2802296428031,-91.0 L 150.2802296428031,-125.45446920936118 C 158.6635768820531,-128.8520962032183 156.22785663666025,-135.973536694004 153.2802296428031,-147.69260417864683 L 160.9302296428031,-149.45874611825113 A 19.00723460223231,19.00723460223231 0.0 0,0 170.2802296428031,-146.9999998827639Z" fill="none" stroke="black" stroke-width="0.2" name="bodice-back" />
<path d="M 250.42034446420467,-111.00574736234 L 239.77068158548173,-98.31397336670474 L 200.7345404113893,-121.8000840901839 C 201.48132207255298,-129.23129235254294 196.9475634351763,-136.79166628090877 203.05229139578785,-145.32671257898738 C 203.9281591615934,-146.54764908226292 204.80113731864913,-147.61661668065153 205.67156936365978,-148.55442804484227 L 250.42034446420467,-111.00574736234Z" fill="none" stroke="black" stroke-width="0.2" name="sleeve-back-right" />
<path d="M 90.14011482140155,-111.00574736234 L 134.88888992194643,-148.55442804484227 C 135.7593219669571,-147.61661668065153 136.6323001240128,-146.54764908226292 137.50816788981837,-145.32671257898738 C 143.61289585042994,-136.7916662809088 139.07913721305323,-129.23129235254294 139.8259188742169,-121.8000840901839 L 100.78977770012449,-98.31397336670474 L 90.14011482140155,-111.00574736234Z" fill="none" stroke="black" stroke-width="0.2" name="sleeve-back-left" />

</svg>
