<?xml version="1.0" encoding="utf-8" ?>
<svg baseProfile="tiny" height="100%" version="1.2" width="100%" xmlns="http://www.w3.org/2000/svg" xmlns:ev="http://www.w3.org/2001/xml-events" xmlns:xlink="http://www.w3.org/1999/xlink"><defs /><path d="M 5.493040446885793,150.0 Q -2.5558000936740157,115.35744624510261 1.2680404468857915,97.19999999999999 L 14.830540417632669,97.19999999999999 L 17.64304041763267,116.79923069281037 L 20.45554041763267,97.19999999999999 L 33.33054050042977,97.19999999999999 L 36.14304050042977,116.79923069281037 L 38.95554050042977,97.19999999999999 L 52.5180404468858,97.19999999999999 Q 56.341880987720025,115.35744623966539 48.293040446885804,150.0 L 5.493040446885793,150.0Z" fill="none" stroke="black" stroke-width="0.2" /><path d="M 5.3999999999999915,97.20000000000002 L 48.2,97.20000000000002 Q 56.24884054083424,62.55744623966541 52.425,44.400000000000006 L 40.11250003979819,44.400000000000006 L 37.30000003979819,68.53669082020151 L 34.48750003979819,44.400000000000006 L 19.11249997006569,44.400000000000006 L 16.29999997006569,68.53669082020151 L 13.487499970065691,44.400000000000006 L 1.1749999999999936,44.400000000000006 Q -2.648840540559817,62.557446245102625 5.3999999999999915,97.20000000000002Z" fill="none" stroke="black" stroke-width="0.2" /><path d="M 18.89969250271377,9.790000000000006 L 0.01994144503294848,28.669751057680827 A 53.94732625733257,53.94732625733257 0.0 0,0 76.31298189191875,28.669751057680827 L 57.433230834237925,9.790000000000006 A 27.247326257332528,27.247326257332528 0.0 0,1 18.89969250271377,9.790000000000006Z" fill="none" stroke="black" stroke-width="0.2" /><path d="M 18.89273294959957,-21.30000000000001 A 27.247326257332528,27.247326257332528 0.0 0,0 57.42627128112371,-21.30000000000001 L 76.30602233880455,-2.4202489423191906 A 53.94732625733257,53.94732625733257 0.0 0,1 0.01298189191874144,-2.4202489423191906 L 18.89273294959957,-21.30000000000001Z" fill="none" stroke="black" stroke-width="0.2" /><path d="M 0.0,-21.30000000000001 L 12.312499970065698,-21.30000000000001 L 27.687500039798195,-21.30000000000001 L 40.0,-21.30000000000001 L 40.0,-24.30000000000001 L 0.0,-24.30000000000001 L 0.0,-21.30000000000001Z" fill="none" stroke="black" stroke-width="0.2" /><path d="M -0.0069595531141999345,-24.30000000000001 L -0.0069595531141999345,-27.30000000000001 L 39.9930404468858,-27.30000000000001 L 39.9930404468858,-24.30000000000001 L 26.430540500429785,-24.30000000000001 L 13.555540417632685,-24.30000000000001 L -0.0069595531141999345,-24.30000000000001Z" fill="none" stroke="black" stroke-width="0.2" /></svg>